<?xml version="1.0" standalone="no"?>
<!DOCTYPE svg PUBLIC "-//W3C//DTD SVG 20010904//EN"
 "http://www.w3.org/TR/2001/REC-SVG-20010904/DTD/svg10.dtd">
<svg version="1.0" xmlns="http://www.w3.org/2000/svg"
 width="491.000000pt" height="491.000000pt" viewBox="0 0 491.000000 491.000000"
 preserveAspectRatio="xMidYMid meet">
<metadata>
Created by potrace 1.14, written by Peter Selinger 2001-2017
</metadata>
<g transform="translate(0.000000,491.000000) scale(0.100000,-0.100000)"
fill="#000000" stroke="none">
<path d="M4893 4358 c-8 -10 -441 -730 -504 -836 -9 -15 -76 -126 -149 -247
-73 -121 -145 -240 -159 -265 -14 -25 -29 -46 -33 -48 -4 -2 -8 -8 -8 -13 0
-5 -30 -58 -66 -117 -37 -59 -75 -120 -84 -137 -22 -39 -657 -1092 -678 -1125
l-16 -25 -23 53 c-28 64 -304 674 -343 757 -15 33 -76 167 -135 298 -60 130
-109 236 -111 235 -1 -2 -30 -64 -64 -138 -34 -74 -75 -163 -91 -197 -16 -35
-42 -91 -58 -125 -56 -122 -344 -744 -382 -826 -22 -46 -39 -88 -39 -93 0 -5
-3 -9 -7 -9 -5 1 -96 132 -203 292 -107 161 -314 470 -460 688 -146 217 -435
647 -641 955 -207 308 -406 604 -443 658 -36 55 -66 103 -66 107 0 5 -3 10 -7
12 -5 2 -30 36 -56 76 -53 79 -68 93 -38 35 10 -21 68 -139 129 -263 121 -248
294 -601 542 -1105 89 -181 209 -424 265 -540 56 -115 190 -388 297 -605 107
-217 245 -500 308 -627 63 -128 116 -233 119 -233 4 1 33 60 66 133 32 73 85
188 117 255 32 68 58 128 58 133 0 23 20 2 74 -78 559 -835 579 -864 591 -851
6 7 42 64 79 126 37 63 144 241 238 395 94 155 178 296 188 312 52 90 65 112
81 133 l18 24 29 -64 c194 -426 237 -517 243 -511 4 5 53 118 109 253 56 135
108 259 116 275 7 17 72 172 144 345 73 173 138 329 145 345 8 17 43 100 78
185 77 185 194 463 212 505 8 17 41 98 76 180 34 83 69 168 79 190 10 22 57
135 105 250 48 116 94 226 103 245 8 19 32 76 52 125 62 148 166 396 193 458
26 57 28 69 10 45z"/>
</g>
</svg>
